<?xml version="1.0" encoding="UTF-8" standalone="no"?>
<!DOCTYPE svg PUBLIC "-//W3C//DTD SVG 1.1//EN" "http://www.w3.org/Graphics/SVG/1.1/DTD/svg11.dtd">
<svg width="100%" height="100%" viewBox="0 0 60 60" version="1.1" xmlns="http://www.w3.org/2000/svg" xmlns:xlink="http://www.w3.org/1999/xlink" xml:space="preserve" xmlns:serif="http://www.serif.com/" style="fill-rule:evenodd;clip-rule:evenodd;stroke-miterlimit:1.5;">
    <g transform="matrix(1.41764,0,0,2.12121,-30.8438,-40)">
        <path d="M21.757,47.143L21.757,27.343L42.214,18.857L64.081,27.343L64.081,47.143L56.322,47.143L56.322,31.114L29.517,31.114L29.517,47.143L21.757,47.143ZM23.873,45.729L23.873,28.13C23.873,28.13 42.25,20.507 42.25,20.507C42.25,20.507 61.965,28.157 61.965,28.157C61.965,28.157 61.965,45.729 61.965,45.729C61.965,45.729 58.438,45.729 58.438,45.729C58.438,45.729 58.438,29.7 58.438,29.7L27.4,29.7L27.4,45.729C27.4,45.729 23.873,45.729 23.873,45.729Z" style="fill:white;"/>
    </g>
    <path d="M11,31L49,31" style="fill:none;stroke:white;stroke-width:3px;"/>
</svg>
