<?xml version="1.0" encoding="UTF-8" standalone="no"?>
<!DOCTYPE svg PUBLIC "-//W3C//DTD SVG 1.1//EN" "http://www.w3.org/Graphics/SVG/1.1/DTD/svg11.dtd">
<svg width="100%" height="100%" viewBox="0 0 60 60" version="1.1" xmlns="http://www.w3.org/2000/svg" xmlns:xlink="http://www.w3.org/1999/xlink" xml:space="preserve" xmlns:serif="http://www.serif.com/" style="fill-rule:evenodd;clip-rule:evenodd;stroke-linejoin:round;stroke-miterlimit:2;">
    <g transform="matrix(1,0,0,0.897436,0,4.84615)">
        <rect x="12" y="12.429" width="36" height="46.8" style="fill:white;"/>
        <path d="M12,12.429L12,59.229L48,59.229L48,12.429L12,12.429ZM15,15.771L45,15.771C45,15.771 45,55.886 45,55.886C45,55.886 15,55.886 15,55.886L15,15.771Z" style="fill:white;"/>
    </g>
    <g transform="matrix(1,0,0,4.38167,-6,-30.6334)">
        <path d="M14,9.958L10,9.502L6,9.958L6,20.685L14,20.685L14,9.958Z" style="fill:white;"/>
    </g>
    <g transform="matrix(1,0,0,4.38167,46,-30.6334)">
        <path d="M14,9.958L10,9.502L6,9.958L6,20.685L14,20.685L14,9.958Z" style="fill:white;"/>
    </g>
</svg>
