<?xml version="1.0" encoding="UTF-8" standalone="no"?>
<!DOCTYPE svg PUBLIC "-//W3C//DTD SVG 1.1//EN" "http://www.w3.org/Graphics/SVG/1.1/DTD/svg11.dtd">
<svg width="100%" height="100%" viewBox="0 0 60 60" version="1.1" xmlns="http://www.w3.org/2000/svg" xmlns:xlink="http://www.w3.org/1999/xlink" xml:space="preserve" xmlns:serif="http://www.serif.com/" style="fill-rule:evenodd;clip-rule:evenodd;stroke-linejoin:round;stroke-miterlimit:2;">
    <g transform="matrix(1,0,0,0.897436,0,4.84615)">
        <path d="M12,12.429L12,59.229L29,39.171L29,-5.4L12,12.429Z" style="fill:white;"/>
        <path d="M12,12.429L12,59.229L29,39.171L29,-5.4L12,12.429ZM15,13.873L26,2.337C26,2.337 26,37.842 26,37.842C26,37.842 15,50.821 15,50.821L15,13.873Z" style="fill:white;"/>
    </g>
    <g transform="matrix(1,0,0,4.38167,-6,-30.6334)">
        <path d="M14,9.958L10,9.502L6,9.958L6,20.685L14,20.685L14,9.958Z" style="fill:white;"/>
    </g>
    <g transform="matrix(1,0,0,4.38167,46,-30.6334)">
        <path d="M14,9.958L10,9.502L6,9.958L6,20.685L14,20.685L14,9.958Z" style="fill:white;"/>
    </g>
</svg>
