<?xml version="1.0" encoding="UTF-8" standalone="no"?>
<!DOCTYPE svg PUBLIC "-//W3C//DTD SVG 1.1//EN" "http://www.w3.org/Graphics/SVG/1.1/DTD/svg11.dtd">
<svg width="100%" height="100%" viewBox="0 0 60 60" version="1.1" xmlns="http://www.w3.org/2000/svg" xmlns:xlink="http://www.w3.org/1999/xlink" xml:space="preserve" xmlns:serif="http://www.serif.com/" style="fill-rule:evenodd;clip-rule:evenodd;stroke-linejoin:round;stroke-miterlimit:2;">
    <g transform="matrix(1,0,0,0.897436,0,4.84615)">
        <rect x="12" y="18" width="36" height="39" style="fill:white;"/>
        <path d="M12,18L12,57L48,57L48,18L12,18ZM15,21.343L45,21.343C45,21.343 45,53.657 45,53.657C45,53.657 15,53.657 15,53.657L15,21.343Z" style="fill:white;"/>
    </g>
    <g transform="matrix(1,0,0,4.38167,-6,-30.6334)">
        <path d="M14,11.099L10,10.643L6,11.099L6,20L14,20L14,11.099Z" style="fill:white;"/>
    </g>
    <g transform="matrix(1,0,0,4.38167,46,-30.6334)">
        <path d="M14,11.099L10,10.643L6,11.099L6,20L14,20L14,11.099Z" style="fill:white;"/>
    </g>
</svg>
